<svg xmlns="http://www.w3.org/2000/svg" viewBox="0 0 1002.35 203.62"><defs><style>.cls-1{fill:#fff;}.cls-2{fill:#ffd703;}</style></defs><title>Fichier 1</title><g id="Calque_2" data-name="Calque 2"><g id="Calque_1-2" data-name="Calque 1"><path class="cls-1" d="M32.29,2.31H102L96.68,27.36H57.62l-4.28,20.1h36.6L84.82,71.53H48.24L37.94,120H7.28Z"/><path class="cls-1" d="M112.06,2.31h30.65L117.7,120H87Z"/><path class="cls-1" d="M167.66,28.35H144.59l5.54-26h76.8l-5.53,26H198.32L178.85,120H148.19Z"/><path class="cls-1" d="M235.49,2.31h34.29l4.37,72.52h.33L289.87,2.31h28.68L293.54,120H259.92l-5-72.68h-.33L239.16,120H210.49Z"/><path class="cls-1" d="M334.71,2.31h69.71l-5.33,25.05H360l-4.28,20.1h36.59l-5.11,24.06H350.65l-5,23.41h40.54l-5.32,25H309.7Z"/><path class="cls-1" d="M457.36,36.26l.59-2.8c1.47-6.92-.11-12.69-6-12.69-6.59,0-10.65,5.11-11.76,10.39C435.21,54.39,487.73,43,478.59,86c-5.33,25-22.37,36.26-49.4,36.26-25.39,0-37.7-8.73-32.51-33.12l.87-4.12h29.66l-.59,2.8c-2.13,10.06,1.21,13.68,7.14,13.68,6.26,0,10.95-4.94,12.31-11.37,4.94-23.23-45.63-11.7-36.77-53.4C414.33,13,429.8,0,455.67,0c26.7,0,35.72,11,30.37,36.26Z"/><path class="cls-1" d="M547.5,36.26l.6-2.8c1.47-6.92-.11-12.69-6-12.69-6.59,0-10.64,5.11-11.76,10.39C525.36,54.39,577.87,43,568.73,86c-5.32,25-22.37,36.26-49.4,36.26-25.38,0-37.7-8.73-32.51-33.12l.88-4.12h29.66l-.6,2.8c-2.13,10.06,1.22,13.68,7.15,13.68,6.26,0,10.94-4.94,12.3-11.37,4.94-23.23-45.64-11.7-36.78-53.4C504.48,13,520,0,545.82,0c26.7,0,35.72,11,30.36,36.26Z"/><path class="cls-1" d="M642.4,2.31h46C711.78,2.31,719,18,714.62,38.57c-5.12,24.06-21.46,36.58-46.35,36.58H657.57L648,120H617.39Zm19.86,50.75H668c7.74,0,12.81-4.45,14.92-14.33C685,29,681.87,24.4,674.12,24.4h-5.76Z"/><path class="cls-1" d="M746.9,2.31h38.57L789.14,120H756.5l1.25-20.6H733.36L725.85,120H693.22Zm14.33,24.06h-.33l-19,49.94H759Z"/><path class="cls-1" d="M820.9,2.31h48c23.4,0,29.5,13.19,25.64,31.32-3.32,15.65-11.59,25.87-26.06,28l-.07.33c14.55,1.31,17,10.71,13.68,26.36l-2.14,10.06c-1.29,6.09-3,14-2,16.31.54,1.32.92,2.63,2.69,3.62l-.36,1.65H847.64c-1.64-6.26.75-17.48,1.8-22.42l1.68-7.91c2.84-13.35.94-16.81-6.47-16.81h-8.08l-10,47.13H795.89ZM841,52.08h6.1c8.73,0,14-5.6,15.83-14,2-9.56-.88-13.68-10.11-13.68h-5.94Z"/><path class="cls-1" d="M916,2.31h30.64L937,47.46h.34L969.71,2.31h32.64l-40.6,51.42L981,120H946l-9.24-41-8.53,9.89L921.64,120H891Z"/><polygon class="cls-2" points="973.7 155.94 0 155.94 2.39 144.68 976.1 144.68 973.7 155.94"/><path class="cls-1" d="M104.94,200.26l2.7-3.23a9.52,9.52,0,0,0,6.2,2.52c1.87,0,3-.74,3-2v-.06c0-1.16-.71-1.75-4.18-2.64-4.18-1.07-6.88-2.22-6.88-6.35v-.06c0-3.77,3-6.26,7.27-6.26a12,12,0,0,1,7.71,2.64l-2.37,3.44a9.75,9.75,0,0,0-5.4-2c-1.75,0-2.67.8-2.67,1.81v.06c0,1.36.89,1.81,4.48,2.73,4.21,1.1,6.58,2.61,6.58,6.23v.06c0,4.12-3.14,6.44-7.62,6.44A13.22,13.22,0,0,1,104.94,200.26Z"/><path class="cls-1" d="M137.79,182.53h15.66v4.06H142.33v4.21h9.79v4.06h-9.79v4.36H153.6v4.06H137.79Z"/><path class="cls-1" d="M191.46,182.53h8.1c6.52,0,11,4.48,11,10.32v.06c0,5.84-4.51,10.38-11,10.38h-8.1Zm4.57,4.12v12.51h3.53a5.92,5.92,0,0,0,6.26-6.2v-.06a6,6,0,0,0-6.26-6.26Z"/><path class="cls-1" d="M227.09,182.53h15.66v4.06H231.63v4.21h9.79v4.06h-9.79v4.36H242.9v4.06H227.09Zm9.64-6.29,3.88,1.69-4,3h-3.44Z"/><path class="cls-1" d="M259.41,182.53h8.48c5,0,7.95,2.94,7.95,7.18v.06c0,4.8-3.74,7.3-8.39,7.3H264v6.23h-4.57ZM267.6,193c2.28,0,3.62-1.36,3.62-3.14v-.06c0-2-1.42-3.14-3.71-3.14H264V193Z"/><path class="cls-1" d="M296.71,182.38h4.21l8.9,20.91H305l-1.9-4.66h-8.78l-1.9,4.66h-4.66Zm4.8,12.22-2.76-6.73L296,194.6Z"/><path class="cls-1" d="M323.75,200.26l2.7-3.23a9.52,9.52,0,0,0,6.2,2.52c1.87,0,3-.74,3-2v-.06c0-1.16-.71-1.75-4.18-2.64-4.18-1.07-6.88-2.22-6.88-6.35v-.06c0-3.77,3-6.26,7.27-6.26a12,12,0,0,1,7.71,2.64l-2.37,3.44a9.75,9.75,0,0,0-5.4-2c-1.75,0-2.67.8-2.67,1.81v.06c0,1.36.89,1.81,4.48,2.73,4.21,1.1,6.58,2.61,6.58,6.23v.06c0,4.12-3.14,6.44-7.62,6.44A13.21,13.21,0,0,1,323.75,200.26Z"/><path class="cls-1" d="M354.88,200.26l2.7-3.23a9.52,9.52,0,0,0,6.2,2.52c1.87,0,3-.74,3-2v-.06c0-1.16-.71-1.75-4.18-2.64-4.18-1.07-6.88-2.22-6.88-6.35v-.06c0-3.77,3-6.26,7.27-6.26a12,12,0,0,1,7.71,2.64l-2.37,3.44a9.75,9.75,0,0,0-5.4-2c-1.75,0-2.67.8-2.67,1.81v.06c0,1.36.89,1.81,4.48,2.73,4.21,1.1,6.58,2.61,6.58,6.23v.06c0,4.12-3.14,6.44-7.62,6.44A13.21,13.21,0,0,1,354.88,200.26Z"/><path class="cls-1" d="M387.73,182.53h15.66v4.06H392.27v4.21h9.79v4.06h-9.79v4.36h11.27v4.06H387.73Z"/><path class="cls-1" d="M420,182.53h9.49a8.27,8.27,0,0,1,6.05,2.11,6.52,6.52,0,0,1,1.78,4.75v.06a6.45,6.45,0,0,1-4.45,6.43l5.07,7.41h-5.34l-4.45-6.64h-3.59v6.64H420Zm9.19,10.08c2.22,0,3.5-1.19,3.5-2.94v-.06c0-2-1.36-3-3.59-3h-4.54v6Z"/><path class="cls-1" d="M474.27,191.93h9.13v4.33h-9.13Z"/><path class="cls-1" d="M519.75,200.26l2.7-3.23a9.52,9.52,0,0,0,6.2,2.52c1.87,0,3-.74,3-2v-.06c0-1.16-.71-1.75-4.18-2.64-4.18-1.07-6.88-2.22-6.88-6.35v-.06c0-3.77,3-6.26,7.27-6.26a12,12,0,0,1,7.71,2.64l-2.37,3.44a9.75,9.75,0,0,0-5.4-2c-1.75,0-2.67.8-2.67,1.81v.06c0,1.36.89,1.81,4.48,2.73,4.21,1.1,6.58,2.61,6.58,6.23v.06c0,4.12-3.14,6.44-7.62,6.44A13.22,13.22,0,0,1,519.75,200.26Z"/><path class="cls-1" d="M552.6,182.53h15.66v4.06H557.14v4.21h9.79v4.06h-9.79v4.36h11.27v4.06H552.6Z"/><path class="cls-1" d="M604.84,200.26l2.7-3.23a9.52,9.52,0,0,0,6.2,2.52c1.87,0,3-.74,3-2v-.06c0-1.16-.71-1.75-4.18-2.64-4.18-1.07-6.88-2.22-6.88-6.35v-.06c0-3.77,3-6.26,7.27-6.26a12,12,0,0,1,7.71,2.64l-2.37,3.44a9.75,9.75,0,0,0-5.4-2c-1.75,0-2.67.8-2.67,1.81v.06c0,1.36.89,1.81,4.48,2.73,4.21,1.1,6.58,2.61,6.58,6.23v.06c0,4.12-3.14,6.44-7.62,6.44A13.22,13.22,0,0,1,604.84,200.26Z"/><path class="cls-1" d="M637.37,194.39V182.53h4.57v11.74c0,3.38,1.69,5.13,4.48,5.13s4.48-1.69,4.48-5V182.53h4.57v11.71c0,6.29-3.53,9.37-9.1,9.37S637.37,200.5,637.37,194.39Z"/><path class="cls-1" d="M672.56,182.53H682a8.27,8.27,0,0,1,6.05,2.11,6.52,6.52,0,0,1,1.78,4.75v.06a6.45,6.45,0,0,1-4.45,6.43l5.07,7.41h-5.34l-4.45-6.64h-3.59v6.64h-4.57Zm9.19,10.08c2.22,0,3.5-1.19,3.5-2.94v-.06c0-2-1.36-3-3.59-3h-4.54v6Z"/><path class="cls-1" d="M706.45,182.53h8.48c5,0,7.95,2.94,7.95,7.18v.06c0,4.8-3.74,7.3-8.39,7.3H711v6.23h-4.57ZM714.63,193c2.28,0,3.62-1.36,3.62-3.14v-.06c0-2-1.42-3.14-3.71-3.14H711V193Z"/><path class="cls-1" d="M743.75,182.38H748l8.9,20.91h-4.77l-1.9-4.66H741.4l-1.9,4.66h-4.66Zm4.8,12.22-2.76-6.73L743,194.6Z"/><path class="cls-1" d="M770.78,200.26l2.7-3.23a9.52,9.52,0,0,0,6.2,2.52c1.87,0,3-.74,3-2v-.06c0-1.16-.71-1.75-4.18-2.64-4.18-1.07-6.88-2.22-6.88-6.35v-.06c0-3.77,3-6.26,7.27-6.26a12,12,0,0,1,7.71,2.64l-2.37,3.44a9.75,9.75,0,0,0-5.4-2c-1.75,0-2.67.8-2.67,1.81v.06c0,1.36.89,1.81,4.48,2.73,4.21,1.1,6.58,2.61,6.58,6.23v.06c0,4.12-3.14,6.44-7.62,6.44A13.21,13.21,0,0,1,770.78,200.26Z"/><path class="cls-1" d="M801.91,200.26l2.7-3.23a9.52,9.52,0,0,0,6.2,2.52c1.87,0,3-.74,3-2v-.06c0-1.16-.71-1.75-4.18-2.64-4.18-1.07-6.88-2.22-6.88-6.35v-.06c0-3.77,3-6.26,7.27-6.26a12,12,0,0,1,7.71,2.64l-2.37,3.44a9.75,9.75,0,0,0-5.4-2c-1.75,0-2.67.8-2.67,1.81v.06c0,1.36.89,1.81,4.48,2.73,4.21,1.1,6.58,2.61,6.58,6.23v.06c0,4.12-3.14,6.44-7.62,6.44A13.21,13.21,0,0,1,801.91,200.26Z"/><path class="cls-1" d="M834.76,182.53h15.66v4.06H839.3v4.21h9.79v4.06H839.3v4.36h11.27v4.06H834.76Z"/><path class="cls-1" d="M867.08,182.53h9.49a8.27,8.27,0,0,1,6.05,2.11,6.52,6.52,0,0,1,1.78,4.75v.06a6.45,6.45,0,0,1-4.45,6.43l5.07,7.41h-5.34l-4.45-6.64h-3.59v6.64h-4.57Zm9.19,10.08c2.22,0,3.5-1.19,3.5-2.94v-.06c0-2-1.36-3-3.59-3h-4.54v6Z"/></g></g></svg>